<svg id="LiteLocker_Logo.svg" data-name="LiteLocker Logo.svg" xmlns="http://www.w3.org/2000/svg" viewBox="0 0 1912.795 320.065"><defs><style>.cls-1{fill:none;clip-rule:evenodd;}.cls-2{clip-path:url(#clip-path);}.cls-3{fill:#949494;fill-rule:evenodd;}</style><clipPath id="clip-path" transform="translate(-44.695 -7.4)"><path id="Schnittmaske" class="cls-1" d="M1016.609,204.707V266.46c0,7.383-7.7,15.046-16.63,15.046-9.68,0-17.01-7.914-16.95-15.046V204.707c-34.2-22.078-14.84-65.2,17.26-65.2C1029.709,139.507,1052.539,180.741,1016.609,204.707ZM2000-.007H0v330.02H2000Z"/></clipPath></defs><title>LiteLocker Logo</title><g class="cls-2"><path id="Locker" class="cls-3" d="M689.429,322.075h180.9V266.568H755.31V29.327H689.429ZM1000,327.465c56.13,0,108.05-42.8,108.05-116.731,0-74.088-51.92-116.891-108.05-116.891s-108.046,42.8-108.046,116.891C891.954,284.662,943.874,327.465,1000,327.465Zm245.31,0c24.04,0,51.55-7.237,73.12-26.526l-25.73-41.55c-11.44,9.113-24.72,14.79-40.02,14.79-28.55,0-49.69-24.881-49.69-63.446s20.3-63.605,51.9-63.605c10.72,0,19.77,3.221,30.23,11.515l30.89-40.812c-16.52-14.373-37.5-23.989-64.8-23.989-61.29,0-115.57,42.8-115.57,116.892,0,73.928,47.76,116.731,109.67,116.731Zm107.55-5.39h64.98V266.486l27.39-31.321,49.91,86.91h71.19l-82.84-130.258,76.96-92.585h-72.09l-68.89,87.7h-1.63V7.4h-64.98Zm327.19,5.39c26.61,0,56.44-8.588,79.01-24.864l-21.39-40.28c-15.7,9.378-31.69,14.266-48.47,14.266-29.36,0-50.61-14.52-56.98-45.818h132.35a143.017,143.017,0,0,0,2.93-29.967c0-60.979-31.69-107.117-94.91-107.117-53.17,0-104.75,44.521-104.75,116.891,0,74.165,48.9,116.889,112.21,116.889Zm-48.33-142.259c4.47-27.2,21.93-40.642,42.46-40.642,25.61,0,36.31,16.853,36.31,40.642Zm176.3,136.869h65.73V192.937c11.83-30.378,32.13-41.209,48.86-41.209a83.449,83.449,0,0,1,22.3,2.7l12.58-56.089c-6.42-2.853-13.79-4.492-26.46-4.492-22.62,0-46.87,14.582-63.02,44.335h-1.63l-4.74-38.945h-53.62Z" transform="translate(-44.695 -7.4)"/></g><path id="Lite" class="cls-3" d="M44.7,319.9H208.122V269.755H104.212V55.429H44.7Zm200.254,0h59.376V118.582H244.949ZM274.708,89.137c19.917,0,33.559-12.368,33.559-31.325,0-18.815-13.642-31.18-33.559-31.18S241.149,39,241.149,57.812C241.149,76.772,254.792,89.137,274.708,89.137ZM429.7,324.77a129.723,129.723,0,0,0,44.462-7.758l-9.435-42.443a56.834,56.834,0,0,1-19.017,3.328c-15.591,0-25.837-9.09-25.837-31.944v-80.64h48V118.618h-48V60.608H370.693l-7.014,58.01-30.7,2.258v44.439h27.369v81.322C360.354,293.282,380.031,324.77,429.7,324.77Zm155.682,0c24.04,0,50.989-7.758,71.378-22.463l-19.322-36.389c-14.184,8.472-28.63,12.888-43.785,12.888-26.529,0-45.724-13.117-51.475-41.393H661.733a128.678,128.678,0,0,0,2.649-27.073c0-55.089-28.629-96.77-85.742-96.77-48.033,0-94.628,40.22-94.628,105.6,0,67,44.171,105.6,101.365,105.6ZM541.721,196.252c4.039-24.573,19.809-36.717,38.357-36.717,23.137,0,32.8,15.225,32.8,36.717Z" transform="translate(-44.695 -7.4)"/></svg>